<?xml version="1.0" encoding="utf-8"?>
<!-- Generator: Adobe Illustrator 17.0.0, SVG Export Plug-In . SVG Version: 6.00 Build 0)  -->
<!DOCTYPE svg PUBLIC "-//W3C//DTD SVG 1.1//EN" "http://www.w3.org/Graphics/SVG/1.1/DTD/svg11.dtd">
<svg version="1.1" id="Layer_1" xmlns="http://www.w3.org/2000/svg" xmlns:xlink="http://www.w3.org/1999/xlink" x="0px" y="0px"
	 width="207.473px" height="66.141px" viewBox="0 0 207.473 66.141" enable-background="new 0 0 207.473 66.141"
	 xml:space="preserve">
<g>
	<g>
		<path fill="#FFFFFF" d="M29.437,34.063c0-0.929,0.163-1.855,0.49-2.777s0.806-1.749,1.437-2.483
			c0.632-0.733,1.405-1.325,2.319-1.775c0.915-0.45,1.953-0.675,3.114-0.675c1.379,0,2.563,0.313,3.55,0.936
			c0.987,0.624,1.72,1.437,2.2,2.439l-1.546,1.002c-0.232-0.493-0.512-0.907-0.839-1.241c-0.327-0.334-0.683-0.603-1.067-0.806
			s-0.78-0.349-1.187-0.436c-0.406-0.087-0.806-0.131-1.198-0.131c-0.857,0-1.615,0.178-2.276,0.533
			c-0.661,0.356-1.216,0.821-1.666,1.394c-0.45,0.574-0.788,1.219-1.013,1.938c-0.225,0.719-0.338,1.442-0.338,2.167
			c0,0.814,0.134,1.587,0.403,2.319c0.269,0.734,0.642,1.383,1.122,1.95c0.479,0.566,1.045,1.016,1.699,1.35
			c0.653,0.334,1.365,0.501,2.134,0.501c0.406,0,0.824-0.051,1.252-0.152c0.428-0.101,0.838-0.265,1.23-0.49
			c0.392-0.225,0.759-0.508,1.1-0.85c0.341-0.341,0.621-0.751,0.838-1.231l1.634,0.893c-0.247,0.581-0.592,1.092-1.034,1.535
			c-0.443,0.443-0.944,0.816-1.503,1.121c-0.559,0.305-1.151,0.538-1.775,0.697c-0.624,0.16-1.234,0.239-1.829,0.239
			c-1.06,0-2.033-0.232-2.919-0.697c-0.886-0.465-1.652-1.071-2.298-1.819c-0.646-0.747-1.147-1.597-1.503-2.548
			C29.614,36.019,29.437,35.051,29.437,34.063z"/>
		<path fill="#FFFFFF" d="M55.79,42.012c-1.089,0-2.08-0.221-2.973-0.664c-0.893-0.443-1.659-1.031-2.298-1.764
			c-0.639-0.733-1.133-1.572-1.481-2.516c-0.348-0.944-0.523-1.909-0.523-2.897c0-1.03,0.185-2.018,0.555-2.962
			c0.37-0.944,0.882-1.778,1.535-2.505c0.653-0.725,1.426-1.303,2.319-1.731c0.893-0.428,1.862-0.643,2.907-0.643
			c1.089,0,2.076,0.229,2.962,0.686c0.886,0.458,1.648,1.056,2.287,1.797c0.639,0.74,1.133,1.579,1.481,2.516
			c0.349,0.936,0.523,1.891,0.523,2.864c0,1.031-0.185,2.018-0.555,2.962c-0.37,0.944-0.879,1.775-1.525,2.494
			c-0.646,0.718-1.416,1.292-2.309,1.72S56.835,42.012,55.79,42.012z M50.497,34.171c0,0.784,0.127,1.543,0.381,2.276
			c0.254,0.733,0.613,1.382,1.078,1.949c0.464,0.566,1.024,1.016,1.677,1.35c0.653,0.334,1.379,0.501,2.178,0.501
			c0.827,0,1.568-0.177,2.221-0.533c0.653-0.356,1.209-0.82,1.666-1.394s0.806-1.223,1.045-1.949c0.24-0.726,0.359-1.459,0.359-2.2
			c0-0.784-0.127-1.543-0.381-2.276c-0.254-0.733-0.617-1.38-1.089-1.938c-0.472-0.559-1.031-1.005-1.677-1.339
			c-0.646-0.334-1.361-0.501-2.145-0.501c-0.828,0-1.568,0.174-2.222,0.523c-0.653,0.349-1.208,0.806-1.666,1.372
			c-0.457,0.567-0.809,1.213-1.056,1.938C50.62,32.676,50.497,33.417,50.497,34.171z"/>
		<path fill="#FFFFFF" d="M68.008,41.903l6.36-15.463h1.611l6.338,15.463h-2.091l-1.829-4.53h-6.49l-1.808,4.53H68.008z
			 M75.173,28.705l-2.875,7.144h5.663L75.173,28.705z"/>
		<path fill="#FFFFFF" d="M87.761,34.063c0-0.929,0.163-1.855,0.49-2.777c0.327-0.922,0.806-1.749,1.437-2.483
			c0.632-0.733,1.405-1.325,2.319-1.775c0.915-0.45,1.953-0.675,3.114-0.675c1.379,0,2.563,0.313,3.55,0.936
			c0.987,0.624,1.72,1.437,2.2,2.439l-1.546,1.002c-0.232-0.493-0.512-0.907-0.839-1.241c-0.327-0.334-0.683-0.603-1.067-0.806
			s-0.78-0.349-1.187-0.436c-0.406-0.087-0.806-0.131-1.198-0.131c-0.857,0-1.615,0.178-2.276,0.533
			c-0.661,0.356-1.216,0.821-1.666,1.394c-0.45,0.574-0.788,1.219-1.013,1.938c-0.225,0.719-0.338,1.442-0.338,2.167
			c0,0.814,0.134,1.587,0.403,2.319c0.269,0.734,0.642,1.383,1.122,1.95c0.479,0.566,1.045,1.016,1.699,1.35
			c0.653,0.334,1.365,0.501,2.134,0.501c0.406,0,0.824-0.051,1.252-0.152c0.428-0.101,0.838-0.265,1.23-0.49
			c0.392-0.225,0.759-0.508,1.1-0.85c0.341-0.341,0.621-0.751,0.838-1.231l1.634,0.893c-0.247,0.581-0.592,1.092-1.034,1.535
			c-0.443,0.443-0.944,0.816-1.503,1.121c-0.559,0.305-1.151,0.538-1.775,0.697c-0.624,0.16-1.234,0.239-1.829,0.239
			c-1.06,0-2.033-0.232-2.919-0.697c-0.886-0.465-1.652-1.071-2.298-1.819c-0.646-0.747-1.147-1.597-1.503-2.548
			C87.939,36.019,87.761,35.051,87.761,34.063z"/>
		<path fill="#FFFFFF" d="M120.408,26.44v15.463h-1.96v-7.035h-8.516v7.035h-1.96V26.44h1.96v6.686h8.516V26.44H120.408z"/>
		<path fill="#FFFFFF" d="M127.486,34.063c0-0.929,0.163-1.855,0.49-2.777c0.327-0.922,0.806-1.749,1.437-2.483
			c0.632-0.733,1.405-1.325,2.319-1.775c0.915-0.45,1.953-0.675,3.114-0.675c1.379,0,2.563,0.313,3.55,0.936
			c0.987,0.624,1.72,1.437,2.2,2.439l-1.546,1.002c-0.232-0.493-0.512-0.907-0.839-1.241c-0.327-0.334-0.683-0.603-1.067-0.806
			c-0.385-0.203-0.78-0.349-1.187-0.436c-0.406-0.087-0.806-0.131-1.198-0.131c-0.857,0-1.615,0.178-2.276,0.533
			c-0.661,0.356-1.216,0.821-1.666,1.394c-0.45,0.574-0.788,1.219-1.013,1.938c-0.225,0.719-0.338,1.442-0.338,2.167
			c0,0.814,0.134,1.587,0.403,2.319c0.269,0.734,0.643,1.383,1.122,1.95c0.479,0.566,1.045,1.016,1.699,1.35
			c0.653,0.334,1.365,0.501,2.134,0.501c0.406,0,0.824-0.051,1.252-0.152c0.428-0.101,0.838-0.265,1.23-0.49
			c0.392-0.225,0.759-0.508,1.1-0.85c0.341-0.341,0.621-0.751,0.838-1.231l1.634,0.893c-0.247,0.581-0.592,1.092-1.034,1.535
			c-0.443,0.443-0.944,0.816-1.503,1.121c-0.559,0.305-1.151,0.538-1.775,0.697c-0.624,0.16-1.234,0.239-1.829,0.239
			c-1.06,0-2.033-0.232-2.919-0.697c-0.886-0.465-1.652-1.071-2.298-1.819c-0.646-0.747-1.147-1.597-1.503-2.548
			C127.664,36.019,127.486,35.051,127.486,34.063z"/>
		<path fill="#FFFFFF" d="M145.868,41.903l6.36-15.463h1.611l6.338,15.463h-2.091l-1.829-4.53h-6.49l-1.808,4.53H145.868z
			 M153.033,28.705l-2.875,7.144h5.663L153.033,28.705z"/>
		<path fill="#FFFFFF" d="M166.601,41.903V26.44h6.621c0.682,0,1.31,0.141,1.884,0.424c0.573,0.284,1.067,0.661,1.481,1.133
			c0.414,0.472,0.737,1.002,0.969,1.59c0.232,0.588,0.349,1.187,0.349,1.797c0,0.537-0.076,1.056-0.229,1.557
			c-0.153,0.501-0.37,0.955-0.653,1.361c-0.283,0.407-0.624,0.756-1.024,1.046c-0.4,0.291-0.846,0.501-1.34,0.632l3.746,5.924
			h-2.221l-3.528-5.553h-4.094v5.553H166.601z M168.561,34.607h4.683c0.406,0,0.773-0.087,1.1-0.262
			c0.327-0.174,0.606-0.41,0.839-0.708c0.232-0.297,0.414-0.642,0.544-1.034c0.131-0.392,0.196-0.798,0.196-1.219
			c0-0.436-0.076-0.846-0.229-1.231s-0.356-0.726-0.61-1.024c-0.254-0.297-0.552-0.53-0.893-0.697
			c-0.341-0.167-0.701-0.25-1.078-0.25h-4.552V34.607z"/>
		<path fill="#FFFFFF" d="M195.916,40.161v1.742h-10.498V26.44h10.301v1.742h-8.341v5.009h7.253v1.634h-7.253v5.336H195.916z"/>
	</g>
	<g>
		<g>
			<rect x="15.146" y="32.944" fill="#FFFFFF" width="6.224" height="2.267"/>
		</g>
	</g>
	<rect x="17.124" y="30.965" fill="#FFFFFF" width="2.268" height="6.224"/>
	<g>
		<path fill="#FFFFFF" d="M19.899,29.121c2.176-7.34,8.977-12.714,17.016-12.714c4.855,0,9.265,1.96,12.468,5.135l1.652-1.652
			c-3.627-3.6-8.619-5.821-14.12-5.821c-9.339,0-17.207,6.406-19.446,15.052H19.899z"/>
		<path fill="#FFFFFF" d="M49.458,46.7c-3.21,3.214-7.648,5.205-12.542,5.205c-8.047,0-14.855-5.386-17.023-12.74h-2.43
			c2.231,8.661,10.105,15.078,19.453,15.078c5.537,0,10.559-2.252,14.194-5.891L49.458,46.7z"/>
	</g>
</g>
</svg>
