<?xml version="1.0" encoding="UTF-8"?>
<svg width="18px" height="20px" viewBox="0 0 18 20" version="1.1" xmlns="http://www.w3.org/2000/svg" xmlns:xlink="http://www.w3.org/1999/xlink">
    <title>icon/trash/mediumGray Copy</title>
    <g id="Progress" stroke="none" stroke-width="1" fill="none" fill-rule="evenodd">
        <g id="Daily-View" transform="translate(-358.000000, -143.000000)" fill="#4A4A4A">
            <g id="icon/trash/mediumGray-Copy" transform="translate(358.036961, 143.000000)">
                <path d="M17.211499,2.87474333 L13.0554415,2.87474333 L13.0554415,2.19712526 C13.0554415,0.985626283 12.0698152,0 10.8583162,0 L6.90759754,0 C5.69609856,0 4.71047228,0.985626283 4.71047228,2.19712526 L4.71047228,2.87474333 L0.554414784,2.87474333 C0.246406571,2.87474333 0,3.1211499 0,3.42915811 C0,3.73716632 0.246406571,3.9835729 0.554414784,3.9835729 L1.55646817,3.9835729 L1.55646817,17.0102669 C1.55646817,18.6447639 2.88706366,19.9753593 4.52156057,19.9753593 L13.2443532,19.9753593 C14.8788501,19.9753593 16.2094456,18.6447639 16.2094456,17.0102669 L16.2094456,3.9835729 L17.211499,3.9835729 C17.5195072,3.9835729 17.7659138,3.73716632 17.7659138,3.42915811 C17.7659138,3.1211499 17.5195072,2.87474333 17.211499,2.87474333 Z M5.81930185,2.19712526 C5.81930185,1.59753593 6.30800821,1.10882957 6.90759754,1.10882957 L10.8583162,1.10882957 C11.4579055,1.10882957 11.9466119,1.59753593 11.9466119,2.19712526 L11.9466119,2.87474333 L5.81930185,2.87474333 L5.81930185,2.19712526 Z M15.100616,17.0102669 C15.100616,18.0328542 14.2669405,18.8665298 13.2443532,18.8665298 L4.52156057,18.8665298 C3.49897331,18.8665298 2.66529774,18.0328542 2.66529774,17.0102669 L2.66529774,3.9835729 L15.1047228,3.9835729 L15.1047228,17.0102669 L15.100616,17.0102669 Z" id="Shape"></path>
                <path d="M8.88295688,16.8788501 C9.19096509,16.8788501 9.43737166,16.6324435 9.43737166,16.3244353 L9.43737166,6.52566735 C9.43737166,6.21765914 9.19096509,5.97125257 8.88295688,5.97125257 C8.57494867,5.97125257 8.32854209,6.21765914 8.32854209,6.52566735 L8.32854209,16.3203285 C8.32854209,16.6283368 8.57494867,16.8788501 8.88295688,16.8788501 Z" id="Shape"></path>
                <path d="M5.26488706,16.2669405 C5.57289528,16.2669405 5.81930185,16.0205339 5.81930185,15.7125257 L5.81930185,7.13347023 C5.81930185,6.82546201 5.57289528,6.57905544 5.26488706,6.57905544 C4.95687885,6.57905544 4.71047228,6.82546201 4.71047228,7.13347023 L4.71047228,15.7125257 C4.71047228,16.0205339 4.96098563,16.2669405 5.26488706,16.2669405 Z" id="Shape"></path>
                <path d="M12.5010267,16.2669405 C12.8090349,16.2669405 13.0554415,16.0205339 13.0554415,15.7125257 L13.0554415,7.13347023 C13.0554415,6.82546201 12.8090349,6.57905544 12.5010267,6.57905544 C12.1930185,6.57905544 11.9466119,6.82546201 11.9466119,7.13347023 L11.9466119,15.7125257 C11.9466119,16.0205339 12.1930185,16.2669405 12.5010267,16.2669405 Z" id="Shape"></path>
            </g>
        </g>
    </g>
</svg>