<?xml version="1.0" encoding="utf-8"?>
<!DOCTYPE svg PUBLIC "-//W3C//DTD SVG 1.1//EN" "http://www.w3.org/Graphics/SVG/1.1/DTD/svg11.dtd">
<svg xmlns="http://www.w3.org/2000/svg" xmlns:xlink="http://www.w3.org/1999/xlink" width="200px" height="200px" x="0px" y="0px" enable-background="new 296 206 200 200" version="1.1" viewBox="296 206 200 200" xml:space="preserve">
    <g>
        <path fill="#00B0B9" d="M496,366c0,22-18,40-40,40H336c-22,0-40-18-40-40V246c0-22,18-40,40-40h120c22,0,40,18,40,40V366z"/>
    </g>
    <g>
        <g>
            <g>
                <path fill="#FFFFFF" d="M402.898,251.896c0,5.173-4.311,9.484-9.484,9.484c-5.173,0-9.484-4.311-9.484-9.484
				s4.311-9.484,9.484-9.484C398.587,242.411,402.898,246.722,402.898,251.896z M393.413,269.14c-5.604,0-9.916,4.311-9.916,9.916
				c0,5.604,4.311,9.915,9.916,9.915c5.604,0,9.915-4.311,9.915-9.915C403.329,273.451,399.018,269.14,393.413,269.14z
				 M393.413,295.869c-5.604,0-10.347,4.742-10.347,10.347s4.742,10.347,10.347,10.347c5.604,0,10.347-4.742,10.347-10.347
				S399.018,295.869,393.413,295.869z M393.413,323.029c-5.604,0-9.916,4.311-9.916,9.915s4.311,9.916,9.916,9.916
				c5.604,0,9.915-4.311,9.915-9.916C403.329,327.771,399.018,323.029,393.413,323.029z M393.413,350.62
				c-5.173,0-9.484,4.311-9.484,9.484s4.311,9.484,9.484,9.484c5.173,0,9.484-4.311,9.484-9.484S398.587,350.62,393.413,350.62z
				 M419.711,267.847c-6.036,0-11.209,5.173-11.209,11.209c0,6.036,5.173,11.209,11.209,11.209s11.209-5.173,11.209-11.209
				C430.92,273.02,425.747,267.847,419.711,267.847z M419.711,294.576c-6.467,0-11.64,5.173-11.64,11.64s5.173,11.64,11.64,11.64
				s11.64-5.173,11.64-11.64S426.178,294.576,419.711,294.576z M419.711,321.736c-6.036,0-11.209,5.173-11.209,11.209
				s5.173,11.209,11.209,11.209s11.209-5.173,11.209-11.209S425.747,321.736,419.711,321.736z M446.871,293.282
				c-6.898,0-12.933,5.604-12.933,12.933c0,6.898,5.604,12.933,12.933,12.933c7.329,0,12.933-5.604,12.933-12.933
				C459.373,298.887,453.769,293.282,446.871,293.282z M366.685,270.433c-4.742,0-8.622,3.88-8.622,8.622
				c0,4.742,3.88,8.622,8.622,8.622c4.742,0,8.622-3.88,8.622-8.622C375.307,274.313,371.427,270.433,366.685,270.433z
				 M366.685,297.162c-5.173,0-9.053,3.88-9.053,9.053s3.88,9.053,9.053,9.053s9.053-3.88,9.053-9.053
				S371.858,297.162,366.685,297.162z M366.685,324.322c-4.742,0-8.622,3.88-8.622,8.622c0,4.742,3.88,8.622,8.622,8.622
				c4.742,0,8.622-3.88,8.622-8.622C375.307,328.202,371.427,324.322,366.685,324.322z M339.956,298.456
				c-4.311,0-7.76,3.449-7.76,7.76s3.449,7.76,7.76,7.76s7.76-3.449,7.76-7.76S344.267,298.456,339.956,298.456z"/>
            </g>
        </g>
    </g>
</svg>
