<?xml version="1.0" encoding="UTF-8"?>
<svg width="21px" height="20px" viewBox="0 0 21 20" version="1.1" xmlns="http://www.w3.org/2000/svg" xmlns:xlink="http://www.w3.org/1999/xlink">
    <!-- Generator: Sketch 51.2 (57519) - http://www.bohemiancoding.com/sketch -->
    <title>formIcon_form</title>
    <desc>Created with Sketch.</desc>
    <defs></defs>
    <g id="Welcome" stroke="none" stroke-width="1">
        <g id="Schedule-Availability-Copy-5" transform="translate(-301.000000, -465.000000)">
            <g id="Group-8" transform="translate(282.000000, 290.000000)">
                <g id="form" transform="translate(19.000000, 175.000000)">
                    <path d="M18.5294922,12.5486328 C18.2533203,12.5486328 18.0294922,12.772461 18.0294922,13.0486328 L18.0294922,17.488086 C18.0285156,18.316211 17.3576172,18.9873047 16.5294922,18.988086 L2.5,18.988086 C1.671875,18.9873047 1.00097655,18.316211 1,17.488086 L1,4.45859375 C1.00097655,3.63066405 1.671875,2.9595703 2.5,2.95859375 L6.9394531,2.95859375 C7.215625,2.95859375 7.4394531,2.7347656 7.4394531,2.45859375 C7.4394531,2.1826172 7.215625,1.95859375 6.9394531,1.95859375 L2.5,1.95859375 C1.1199219,1.96015625 0.0015625,3.0785156 0,4.45859375 L0,17.4882812 C0.0015625,18.8683594 1.1199219,19.9867188 2.5,19.9882812 L16.5294922,19.9882812 C17.9095703,19.9867188 19.0279297,18.8683594 19.0294922,17.4882812 L19.0294922,13.0486328 C19.0294922,12.772461 18.8056641,12.5486328 18.5294922,12.5486328 Z" id="Shape"></path>
                    <path d="M18.8314453,0.6720703 C17.9527344,-0.2066406 16.528125,-0.2066406 15.6494141,0.6720703 L6.72910155,9.5923828 C6.66796875,9.6535156 6.6238281,9.7292969 6.60078125,9.8125 L5.4277344,14.047461 C5.3794922,14.2210938 5.4285156,14.4070313 5.5558594,14.5345703 C5.68339845,14.6619141 5.86933595,14.7109375 6.04296875,14.6628906 L10.2779297,13.4896485 C10.3611328,13.4666016 10.4369141,13.422461 10.4980469,13.3613281 L19.4181641,4.4408203 C20.2955078,3.56152345 20.2955078,2.13808595 19.4181641,1.25878905 L18.8314453,0.6720703 Z M7.8185547,9.9173828 L15.1191406,2.61660155 L17.4736328,4.97109375 L10.1728515,12.271875 L7.8185547,9.9173828 Z M7.3482422,10.8611328 L9.2292969,12.7423828 L6.62734375,13.4632812 L7.3482422,10.8611328 Z M18.7111328,3.73378905 L18.1808594,4.2640625 L15.8261719,1.909375 L16.3566406,1.37910155 C16.8447266,0.8910156 17.6361328,0.8910156 18.1242187,1.37910155 L18.7111328,1.9658203 C19.1984375,2.4544922 19.1984375,3.2453125 18.7111328,3.73378905 Z" id="Shape"></path>
                </g>
            </g>
        </g>
    </g>
</svg>