<?xml version="1.0" encoding="utf-8"?>
<!DOCTYPE svg PUBLIC "-//W3C//DTD SVG 1.1//EN" "http://www.w3.org/Graphics/SVG/1.1/DTD/svg11.dtd">
<svg xmlns="http://www.w3.org/2000/svg" xmlns:xlink="http://www.w3.org/1999/xlink" width="200px" height="200px" x="0px" y="0px" enable-background="new 550.371 206 200 200" version="1.1" viewBox="550.371 206 200 200" xml:space="preserve">
    <g>
        <path fill="#F1F1F1" d="M750.371,366c0,22-18,40-40,40h-120c-22,0-40-18-40-40V246c0-22,18-40,40-40h120c22,0,40,18,40,40V366z"/>
    </g>
    <g>
        <path fill="#DD4532" d="M650.53,370.679l0.007,3.774c-0.196,0.135-3.627,0.483-7.881-4.159l-57.938-57.938
		c-5.583-5.583-9.077-12.462-10.485-19.671c-2.067-10.585,0.367-21.875,7.305-30.8c0.973-1.25,2.033-2.456,3.18-3.603
		c14.931-14.931,39.14-14.931,54.074,0l11.579,11.579L650.53,370.679z"/>
        <path fill="#89074F" d="M726.511,292.688c0,0,0,0,0,0.003c-1.408,7.206-4.906,14.082-10.489,19.665l-57.938,57.938
		c-0.65,0.065-1.303,0.121-1.955,0.171c-0.668,0.05-1.34,0.093-2.011,0.124c-1.188,0.056-2.384,0.087-3.587,0.09h-0.32l0.131-83.892
		l0.028-16.923l11.579-11.579c14.934-14.934,39.143-14.934,54.074,0c1.15,1.15,2.213,2.36,3.189,3.612
		c5.145,6.615,7.809,14.536,7.998,22.503v0.003C727.276,287.176,727.042,289.955,726.511,292.688z"/>
        <path fill="#770644" d="M726.511,292.691c-1.408,7.206-4.906,14.082-10.489,19.665l-57.938,57.938
		c-0.919,0.795-4.112,4.065-7.912,4.229l0.026-3.843v-83.805l0.112-0.068l0.031-0.019L699.5,256.69l27.71,27.71v0.003
		C727.276,287.176,727.042,289.955,726.511,292.691z"/>
        <path fill="#C70561" d="M700.806,312.356l-44.677,58.109c-0.668,0.05-1.34,0.093-2.011,0.124c-1.188,0.056-2.384,0.087-3.587,0.09
		h-0.323l0.103-83.873l0.012-9.046l0.009-7.896l8.9-11.579c11.057-14.38,28.727-14.912,40.269-1.595
		c0.448,0.51,0.883,1.041,1.306,1.595c5.008,6.509,7.831,14.781,8.471,23.283C710.104,292.563,707.281,303.934,700.806,312.356z"/>
        <path fill="#BD065B" d="M700.806,312.356l-44.677,58.109c-2.517,3.484-4.754,4.055-5.957,4.058l0.026-3.844v-92.82l0.124-0.099
		l30.626-24.521l28.329,28.329C710.104,292.563,707.281,303.934,700.806,312.356z"/>
        <path fill="#FF9300" d="M684.159,312.356l-30.041,58.233c-1.464,2.538-2.743,3.931-3.946,3.934l0.035-3.844l0.081-100.818
		l5.975-11.579c7.703-14.931,20.194-14.931,27.897,0C691.862,273.215,691.862,297.426,684.159,312.356z"/>
    </g>
</svg>
