<?xml version="1.0" encoding="utf-8"?>
<!DOCTYPE svg PUBLIC "-//W3C//DTD SVG 1.1//EN" "http://www.w3.org/Graphics/SVG/1.1/DTD/svg11.dtd">
<svg xmlns="http://www.w3.org/2000/svg" xmlns:xlink="http://www.w3.org/1999/xlink" id="Layer_1" width="200px" height="200px" x="0px" y="0px" enable-background="new 801.802 206 200 200" version="1.1" viewBox="801.802 206 200 200" xml:space="preserve">
    <g>
        <path fill="#FEFEFE" d="M1001.802,366c0,22-18,40-40,40h-120c-22,0-40-18-40-40V246c0-22,18-40,40-40h120c22,0,40,18,40,40V366z"/>
    </g>
    <g>
        <path fill="#FEFEFE" d="M959.516,325.355c0.004-10.429,0.006-27.553,0.005-38.053c-0.001-10.5,0.088-39.174,0.184-40.386
		c0,0,0,0-1.897,0.043c-1.869,0.042-1.523,1.109-1.523,2.16c-0.002,32.728-0.001,58.184-0.001,58.184
		c0.001,22,0.008,42.455,0.015,45.455c0.007,3,0.004,11.256,0.047,11.681c0.043,0.424,1.774,0.721,2.277,0.527
		C959.125,364.771,959.512,335.784,959.516,325.355z M843.798,268.02c-0.002,20.926,0,46.638,0.004,57.136
		c0.004,10.499,0.029,38.628,0.113,39.179c0.084,0.551,2.053,0.716,2.423,0.389c0.37-0.327,0.676-15.715,0.68-33.07
		c0.004-17.355-0.004-69.07-0.018-76.355c0,0,0,0,0.053-6.622c0.01-1.235-0.281-1.642-1.607-1.7
		c-1.713-0.075-1.668,0.815-1.667,2.02C843.798,268.02,843.798,268.02,843.798,268.02z M876.831,319.492
		c-0.25-0.239-1.112,0.004-1.915,0.54c0,0,0,0-0.67,0.596c-0.582,0.518-0.582,0.518-0.582,0.518
		c0.489,0.442,4.652,6.505,9.252,13.473s16.951,25.69,17.287,26.081c0.336,0.391,5.27-6.407,9.845-13.392
		c4.575-6.985,16.868-25.765,17.039-26.283c0.172-0.517-1.208-1.736-1.655-1.659c-0.447,0.077-7.967,10.926-16.172,23.297
		c0,0,0,0-7.41,11.279c-0.775,1.18-0.775,1.18-0.775,1.18c-0.709-0.603-2.697-3.245-4.419-5.872c0,0,0,0-1.573-2.383
		c-5.826-8.825-5.826-8.825-5.826-8.825C882.844,328.336,877.082,319.731,876.831,319.492z M918.777,254.376
		c-9.488,0.001-25.073,0.013-34.633,0.026c0,0,0,0-8.69-0.048c-1.317-0.007-1.726,0.316-1.757,1.718
		c-0.039,1.767-0.039,1.767-0.039,1.767c1.14-0.156,9.836-0.283,19.324-0.281c9.488,0.001,34.969,0.031,35.539,0.061
		c0.569,0.03,0.526-2.402-0.091-3.231c0,0,0,0-1.028-0.001C918.777,254.376,918.777,254.376,918.777,254.376z M918.864,292.144
		c-9.487-0.006-25.012-0.007-34.499-0.002c0,0,0,0-8.625-0.02c-1.167-0.003-2.044-0.114-2.038,1.632
		c0.006,1.7,0.898,1.503,1.95,1.502c17.315-0.006,17.315-0.006,17.315-0.006c19.046,0.004,35.064,0.047,35.596,0.095
		c0.532,0.048,0.572-2.331,0.085-3.223c0,0,0,0-1.158,0.003C918.864,292.144,918.864,292.144,918.864,292.144z M888.112,276.365
		c3.458,0.002,6.287,0.006,6.287,0.009c0,0.002,2.888,0.003,6.417-0.003c3.529-0.006,13.27,0.011,13.804-0.013
		s0.809-1.93,0.635-2.364c-0.173-0.434-12.96-0.775-27.006-0.761c0,0,0,0-12.769-0.04c-1.311-0.004-1.786,0.343-1.8,1.736
		c-0.015,1.535-0.015,1.535-0.015,1.535C874.695,276.417,884.654,276.363,888.112,276.365z"/>
    </g>
    <path fill="#5F5F5F" d="M959.52,306.393c-0.002,18.962-0.011,37.923,0.015,56.885c0.002,1.335-0.039,2.192-1.828,2.041
	c-1.283-0.108-1.449-0.56-1.441-1.652c0.044-5.454,0.019-10.909,0.019-16.364c-0.001-32.728-0.003-65.456-0.001-98.184
	c0-1.051-0.345-2.117,1.523-2.16c1.897-0.043,1.723,0.946,1.723,2.16C959.519,268.21,959.522,287.302,959.52,306.393z"/>
    <path fill="#5D5D5D" d="M843.793,306.067c-0.001-19.024,0.005-38.048-0.014-57.071c-0.001-1.205-0.047-2.095,1.667-2.02
	c1.327,0.058,1.617,0.465,1.607,1.7c-0.053,6.622-0.028,13.245-0.028,19.868c-0.001,31.555,0.002,63.11-0.013,94.664
	c0,0.92,0.49,2.09-1.346,2.111c-1.598,0.017-1.906-0.503-1.903-1.986C843.81,344.245,843.794,325.156,843.793,306.067z"/>
    <path fill="#5D5D5D" d="M876.376,319.057c0.715,0.271,0.911,0.869,1.221,1.339c5.838,8.817,11.66,17.646,17.486,26.471
	c1.573,2.383,3.209,4.726,4.703,7.158c0.861,1.402,1.289,1.096,2.064-0.083c7.41-11.279,14.862-22.53,22.328-33.772
	c0.441-0.664,0.597-2.037,2.067-0.944c1.154,0.858,1.42,1.402,0.529,2.74c-8.408,12.641-16.748,25.328-25.046,38.043
	c-0.915,1.403-1.263,1.315-2.137-0.019c-8.314-12.701-16.689-25.361-25.039-38.038c-0.257-0.391-0.889-0.804-0.307-1.322
	C874.917,320.032,875.692,319.554,876.376,319.057z"/>
    <path fill="#CBD818" d="M901.525,254.38c8.626,0.001,17.252-0.004,25.877,0.007c1.028,0.001,2.145-0.394,2.15,1.509
	c0.004,1.777-0.916,1.67-2.066,1.67c-17.252-0.005-34.503-0.001-51.755-0.009c-0.995,0-2.073,0.284-2.034-1.483
	c0.031-1.402,0.44-1.726,1.757-1.718C884.144,254.402,892.835,254.379,901.525,254.38z"/>
    <path fill="#07ADC1" d="M901.614,292.134c8.625,0.001,17.25,0.01,25.875-0.009c1.158-0.003,2.048-0.135,2.043,1.619
	c-0.004,1.688-0.872,1.515-1.937,1.514c-17.315-0.008-34.629-0.008-51.944-0.002c-1.052,0-1.944,0.198-1.95-1.502
	c-0.006-1.746,0.872-1.634,2.038-1.632C884.365,292.142,892.989,292.133,901.614,292.134z"/>
    <path fill="#2DBFB9" d="M894.399,276.37c-6.287,0-12.575-0.009-18.862,0.009c-1.037,0.003-1.872,0.087-1.857-1.448
	c0.014-1.393,0.489-1.74,1.8-1.736c12.769,0.04,25.538,0.036,38.307,0.014c1.153-0.002,1.766,0.185,1.783,1.575
	c0.019,1.531-0.714,1.627-1.92,1.619c-6.417-0.042-12.834-0.02-19.251-0.02C894.399,276.378,894.399,276.374,894.399,276.37z"/>
</svg>
