<?xml version="1.0" encoding="UTF-8"?>
<svg width="20px" height="20px" viewBox="0 0 20 20" version="1.1" xmlns="http://www.w3.org/2000/svg" xmlns:xlink="http://www.w3.org/1999/xlink">
    <!-- Generator: Sketch 51.2 (57519) - http://www.bohemiancoding.com/sketch -->
    <title>formIcon_URLlink</title>
    <desc>Created with Sketch.</desc>
    <defs></defs>
    <g id="Welcome" stroke="none" stroke-width="1">
        <g id="Schedule-Availability-Copy-5" transform="translate(-301.000000, -424.000000)">
            <g id="Group-8" transform="translate(282.000000, 290.000000)">
                <g id="URLlink" transform="translate(19.000000, 134.000000)">
                    <path d="M19.976,9.33333333 C19.648,4.34133333 15.6586667,0.350666667 10.6666667,0.0226666667 L10.6666667,0 L10,0 L9.33333333,0 L9.33333333,0.0226666667 C4.34133333,0.350666667 0.350666667,4.34133333 0.0226666667,9.33333333 L0,9.33333333 L0,10 L0,10.6666667 L0.0226666667,10.6666667 C0.350666667,15.6586667 4.34133333,19.648 9.33333333,19.976 L9.33333333,20 L10,20 L10.6666667,20 L10.6666667,19.976 C15.6586667,19.648 19.648,15.6586667 19.976,10.6666667 L20,10.6666667 L20,10 L20,9.33333333 L19.976,9.33333333 Z M6.26,2.18 C5.616,3.036 5.08133333,4.10933333 4.692,5.33333333 L2.69466667,5.33333333 C3.564,3.97733333 4.79866667,2.88 6.26,2.18 Z M1.99733333,6.66666667 L4.34133333,6.66666667 C4.16266667,7.50933333 4.04933333,8.404 4.01333333,9.33333333 L1.35866667,9.33333333 C1.42933333,8.39466667 1.65066667,7.49733333 1.99733333,6.66666667 Z M1.35866667,10.6666667 L4.01333333,10.6666667 C4.04933333,11.596 4.16266667,12.4906667 4.34133333,13.3333333 L1.99733333,13.3333333 C1.65066667,12.5026667 1.42933333,11.6053333 1.35866667,10.6666667 Z M2.69466667,14.6666667 L4.69066667,14.6666667 C5.08,15.8906667 5.61466667,16.964 6.26,17.82 C4.79866667,17.12 3.564,16.024 2.69466667,14.6666667 Z M9.33333333,18.5813333 C7.96266667,18.2146667 6.78266667,16.7426667 6.06666667,14.6666667 L9.33333333,14.6666667 L9.33333333,18.5813333 Z M9.33333333,13.3333333 L5.692,13.3333333 C5.504,12.5026667 5.38533333,11.6053333 5.34666667,10.6666667 L9.33333333,10.6666667 L9.33333333,13.3333333 Z M9.33333333,9.33333333 L5.34666667,9.33333333 C5.38533333,8.39466667 5.504,7.49733333 5.692,6.66666667 L9.33333333,6.66666667 L9.33333333,9.33333333 Z M9.33333333,5.33333333 L6.06666667,5.33333333 C6.78266667,3.25733333 7.96266667,1.78533333 9.33333333,1.42 L9.33333333,5.33333333 Z M17.3053333,5.33333333 L15.3106667,5.33333333 C14.92,4.10933333 14.3866667,3.036 13.74,2.18 C15.2,2.88 16.436,3.97733333 17.3053333,5.33333333 Z M10.6666667,1.42 C12.036,1.78533333 13.2173333,3.25733333 13.9333333,5.33333333 L10.6666667,5.33333333 L10.6666667,1.42 Z M10.6666667,6.66666667 L14.3066667,6.66666667 C14.496,7.49733333 14.612,8.39466667 14.6533333,9.33333333 L10.6666667,9.33333333 L10.6666667,6.66666667 Z M10.6666667,10.6666667 L14.6533333,10.6666667 C14.6146667,11.6053333 14.496,12.5026667 14.3066667,13.3333333 L10.6666667,13.3333333 L10.6666667,10.6666667 Z M10.6666667,18.5813333 L10.6666667,14.6666667 L13.9333333,14.6666667 C13.2173333,16.7426667 12.036,18.2146667 10.6666667,18.5813333 Z M13.74,17.82 C14.384,16.9626667 14.92,15.8906667 15.3106667,14.6666667 L17.3053333,14.6666667 C16.436,16.024 15.2,17.12 13.74,17.82 Z M18.0026667,13.3333333 L15.6586667,13.3333333 C15.8373333,12.4906667 15.9506667,11.596 15.9866667,10.6666667 L18.64,10.6666667 C18.5706667,11.6053333 18.3493333,12.5026667 18.0026667,13.3333333 Z M15.9866667,9.33333333 C15.9506667,8.404 15.8373333,7.50933333 15.6586667,6.66666667 L18.0026667,6.66666667 C18.3493333,7.49733333 18.5706667,8.39466667 18.6413333,9.33333333 L15.9866667,9.33333333 Z" id="Shape"></path>
                </g>
            </g>
        </g>
    </g>
</svg>