<?xml version="1.0" encoding="iso-8859-1"?>
<!-- Generator: Adobe Illustrator 17.1.0, SVG Export Plug-In . SVG Version: 6.00 Build 0)  -->
<!DOCTYPE svg PUBLIC "-//W3C//DTD SVG 1.1//EN" "http://www.w3.org/Graphics/SVG/1.1/DTD/svg11.dtd">
<svg version="1.1" id="Capa_1" xmlns="http://www.w3.org/2000/svg" xmlns:xlink="http://www.w3.org/1999/xlink" x="0px" y="0px"
	 viewBox="0 0 419.981 419.981" style="enable-background:new 0 0 419.981 419.981;" xml:space="preserve">
<g>
	<path d="M45.049,325.149c-5.261,1.68-8.164,7.308-6.483,12.568c1.68,5.26,7.308,8.164,12.568,6.483
		c3.735-1.195,11.103,0.94,17.405,7.242c6.302,6.301,8.435,13.671,7.242,17.405c-1.68,5.261,1.222,10.888,6.483,12.568
		c1.012,0.323,2.037,0.477,3.045,0.477c4.234,0,8.167-2.711,9.523-6.961c3.747-11.732-1.022-26.504-12.151-37.633
		C71.552,326.172,56.781,321.402,45.049,325.149z"/>
	<path d="M410.02,9.962c-13.282-13.283-34.895-13.282-48.178,0c-32.962,32.962-58.1,45.956-78.298,56.396
		c-13.642,7.051-25.423,13.141-35.591,23.309c-14.706,14.706-17.649,29.941-20.014,42.184c-1.736,8.984-3.107,16.081-8.574,21.548
		c-8.885,8.885-17.347,8.285-30.417,6.572c-11.89-1.558-26.684-3.497-39.204,9.021L5.257,313.479
		c-5.051,5.052-9.028,15.138,0.713,34.503c5.973,11.873,16.074,25.223,28.441,37.589c12.367,12.368,25.717,22.468,37.59,28.441
		c8.661,4.357,15.464,5.969,20.793,5.969c6.585,0,10.917-2.464,13.709-5.256l115.816-115.816c0.022-0.022,0.045-0.045,0.068-0.068
		c0.022-0.023,0.044-0.045,0.067-0.068l28.535-28.535c12.52-12.52,10.581-27.315,9.022-39.204
		c-1.713-13.07-2.312-21.532,6.572-30.416c5.467-5.467,12.564-6.838,21.548-8.574c12.242-2.365,27.477-5.309,42.184-20.015
		c10.168-10.168,16.257-21.949,23.309-35.591c10.44-20.198,23.434-45.336,56.396-78.298C423.302,44.856,423.301,23.244,410.02,9.962
		z M178.985,293.057c5.031,3.182,9.553,5.562,13.617,7.283l-99.665,99.664c-4.624,0.453-22.482-6.672-44.385-28.576
		c-21.905-21.904-29.012-39.779-28.576-44.385l99.681-99.682c5.693,13.64,17.262,28.949,30.637,42.324
		c3.906,3.907,10.238,3.905,14.142,0.001c3.905-3.905,3.906-10.237,0-14.142c-20.349-20.35-27.928-37.22-28.552-43.206
		c5.987,0.625,22.858,8.205,43.206,28.552c20.302,20.303,27.893,37.142,28.548,43.165c-2.783-0.321-8.72-2.054-17.962-7.9
		c-4.668-2.953-10.845-1.562-13.797,3.105C172.927,283.928,174.318,290.104,178.985,293.057z M240.181,233.633
		c1.457,11.113,1.97,17.159-3.334,22.463l-12.977,12.977c-5.693-13.64-17.262-28.948-30.637-42.324
		c-13.375-13.375-28.684-24.943-42.324-30.637l12.978-12.977c5.302-5.303,11.348-4.79,22.462-3.333
		c10.976,1.439,25.373,3.327,39.391-5.886l20.327,20.327C236.855,208.26,238.742,222.656,240.181,233.633z M395.877,43.997
		c-35.16,35.16-49.529,62.959-60.02,83.257c-6.544,12.662-11.713,22.662-19.684,30.632c-10.373,10.374-20.798,12.388-31.835,14.52
		c-7.681,1.484-16.121,3.115-23.968,7.855l-20.649-20.649c4.74-7.846,6.371-16.287,7.855-23.968
		c2.132-11.037,4.146-21.462,14.52-31.835c7.971-7.971,17.971-13.14,30.633-19.684c20.298-10.492,48.097-24.861,83.256-60.021
		c5.485-5.485,14.409-5.484,19.893,0C401.361,29.589,401.361,38.513,395.877,43.997z"/>
</g>
<g>
</g>
<g>
</g>
<g>
</g>
<g>
</g>
<g>
</g>
<g>
</g>
<g>
</g>
<g>
</g>
<g>
</g>
<g>
</g>
<g>
</g>
<g>
</g>
<g>
</g>
<g>
</g>
<g>
</g>
</svg>
