<?xml version="1.0" encoding="UTF-8"?>
<svg width="28px" height="20px" viewBox="0 0 28 20" version="1.1" xmlns="http://www.w3.org/2000/svg" xmlns:xlink="http://www.w3.org/1999/xlink">
    <!-- Generator: Sketch 51.2 (57519) - http://www.bohemiancoding.com/sketch -->
    <title>formIcon_video</title>
    <desc>Created with Sketch.</desc>
    <defs></defs>
    <g id="Welcome" stroke="none" stroke-width="1">
        <g id="Schedule-Availability-Copy-5" transform="translate(-299.000000, -596.000000)">
            <g id="Group-8" transform="translate(282.000000, 290.000000)">
                <g id="video" transform="translate(17.000000, 306.000000)">
                    <path d="M26.957561,4.11170732 C26.4273171,3.77268293 25.7687805,3.72731707 25.197561,3.99121951 L21.4634146,5.71463415 L21.4634146,5.65073171 C21.4634146,4.76146341 20.74,4.03756098 19.8502439,4.03756098 L17.5609756,4.03756098 L17.5609756,1.59853659 C17.5609756,0.791707317 16.9043902,0.135121951 16.097561,0.135121951 L0.487804878,0.135121951 C0.218536585,0.135121951 0,0.353170732 0,0.622926829 C0,0.892682927 0.218536585,1.11073171 0.487804878,1.11073171 L16.097561,1.11073171 C16.3663415,1.11073171 16.5853659,1.32926829 16.5853659,1.59853659 L16.5853659,4.03756098 L1.61317073,4.03756098 C0.723414634,4.03804878 0,4.76146341 0,5.65073171 L0,18.0346341 C0,18.9239024 0.723414634,19.6478049 1.61317073,19.6478049 L19.8502439,19.6478049 C20.74,19.6478049 21.4634146,18.9243902 21.4634146,18.0346341 L21.4634146,17.9707317 L25.197561,19.6941463 C25.4443902,19.8078049 25.7073171,19.8643902 25.9692683,19.8643902 C26.3141463,19.8643902 26.6565854,19.7668293 26.9580488,19.5736585 C27.4882927,19.2346341 27.804878,18.6560976 27.804878,18.0263415 L27.804878,5.6595122 C27.804878,5.0297561 27.4882927,4.45121951 26.957561,4.11170732 Z M20.4878049,18.0346341 C20.4878049,18.3863415 20.2019512,18.6721951 19.8502439,18.6721951 L1.61317073,18.6721951 C1.26146341,18.6721951 0.975609756,18.3863415 0.975609756,18.0346341 L0.975609756,5.65073171 C0.975609756,5.29902439 1.26146341,5.01317073 1.61317073,5.01317073 L19.8502439,5.01317073 C20.2019512,5.01317073 20.4878049,5.29902439 20.4878049,5.65073171 L20.4878049,6.16487805 L20.4878049,17.5204878 L20.4878049,18.0346341 Z M26.8292683,18.0263415 C26.8292683,18.3258537 26.6843902,18.5907317 26.4321951,18.7521951 C26.18,18.9136585 25.8795122,18.9356098 25.6068293,18.8082927 L21.4634146,16.8965854 L21.4634146,6.78878049 L25.6063415,4.87707317 C25.8785366,4.7502439 26.1795122,4.77170732 26.4317073,4.93317073 C26.6839024,5.09463415 26.8292683,5.36 26.8292683,5.6595122 L26.8292683,18.0263415 Z" id="Shape"></path>
                </g>
            </g>
        </g>
    </g>
</svg>